<svg width="162" height="169" viewBox="0 0 162 169" fill="none" xmlns="http://www.w3.org/2000/svg">
<path d="M75.0257 168.921C73.7498 168.861 71.4256 168.483 70.0889 168.105C69.5117 167.954 68.3116 167.652 67.4306 167.456C63.709 166.594 60.5494 165.552 58.0886 164.358C55.2632 162.999 53.6378 162.243 53.3036 162.137C53.0909 162.092 52.6808 161.82 52.3618 161.563C51.7238 161.019 51.101 160.596 50.0529 160.007C49.6579 159.781 49.0199 159.327 48.6402 159.025C48.2756 158.708 47.911 158.451 47.8503 158.451C47.7743 158.451 47.5465 158.3 47.3186 158.134C46.9237 157.832 46.9237 157.801 47.1667 157.529C47.4857 157.167 48.3819 157.152 51.0251 157.469C52.5897 157.65 55.7189 157.696 68.6306 157.696H84.3374L87.2388 157.318C88.8337 157.106 90.687 156.804 91.3553 156.638C92.0237 156.487 93.1934 156.2 93.9377 156.019C95.6238 155.611 98.5403 154.553 100.166 153.767C100.849 153.435 101.472 153.163 101.548 153.163C101.639 153.163 101.989 152.967 102.308 152.74C102.627 152.498 103.31 152.105 103.811 151.849C105.209 151.154 106.287 150.504 107.533 149.597C108.156 149.144 109.022 148.54 109.447 148.253C110.89 147.286 116.313 141.726 117.483 140.004C117.726 139.641 118.151 139.067 118.409 138.734C118.683 138.402 119.002 137.858 119.138 137.526C119.29 137.193 119.564 136.755 119.746 136.544C119.943 136.332 120.293 135.788 120.521 135.335C120.749 134.882 121.083 134.308 121.265 134.051C121.447 133.809 121.675 133.401 121.797 133.144C121.903 132.903 122.237 132.283 122.556 131.785C123.635 130.062 124.242 129.02 124.242 128.869C124.242 128.778 124.561 128.249 124.941 127.675C125.321 127.116 126.02 125.938 126.491 125.061C126.946 124.185 127.478 123.279 127.66 123.022C127.842 122.78 128.207 122.161 128.465 121.662C128.708 121.163 129.149 120.408 129.422 119.97C130.835 117.809 131.078 117.401 131.078 117.25C131.078 117.16 131.306 116.752 131.579 116.359C131.853 115.951 132.202 115.332 132.339 114.984C132.476 114.652 133.038 113.67 133.584 112.824C134.131 111.977 134.739 110.965 134.921 110.588C135.119 110.195 135.483 109.575 135.757 109.213C136.03 108.85 136.243 108.472 136.243 108.367C136.243 108.261 136.425 107.913 136.638 107.596C136.866 107.279 137.306 106.538 137.61 105.949C138.369 104.514 138.931 103.517 139.509 102.625C140.299 101.386 140.982 100.253 141.407 99.4526C141.635 99.0447 142.03 98.3648 142.304 97.9569C142.562 97.5338 142.775 97.1259 142.775 97.0353C142.775 96.8993 143.975 94.8445 145.023 93.1826C145.205 92.8956 145.463 92.3366 145.6 91.9286C145.889 91.0826 146.208 90.8559 146.846 91.0826C147.787 91.3998 148 92.82 148 98.6216C148 103.32 147.803 105.436 147.18 107.46C147.028 107.959 146.83 108.865 146.739 109.469C146.648 110.074 146.405 110.89 146.208 111.283C146.01 111.675 145.691 112.506 145.509 113.126C145.311 113.745 144.977 114.667 144.749 115.165C144.521 115.664 144.218 116.404 144.066 116.797C143.929 117.19 143.64 117.719 143.443 117.945C143.245 118.187 143.078 118.444 143.078 118.535C143.078 118.61 142.729 119.214 142.304 119.849C141.878 120.499 141.468 121.194 141.392 121.405C141.24 121.798 141.134 121.964 138.992 125.53C138.324 126.663 137.762 127.66 137.762 127.736C137.762 127.826 137.488 128.31 137.154 128.823C136.82 129.337 136.334 130.153 136.076 130.621C135.498 131.709 134.602 133.235 133.417 135.229C132.901 136.075 132.339 137.073 132.172 137.45C131.822 138.206 130.805 139.883 130.349 140.472C130.197 140.683 129.939 141.091 129.787 141.378C129.27 142.406 127.053 145.805 126.308 146.712C126.05 147.014 125.594 147.558 125.306 147.92C125.002 148.268 124.592 148.827 124.364 149.159C123.832 149.975 118.759 155.067 117.711 155.837C117.255 156.17 116.389 156.88 115.781 157.408C115.189 157.937 114.141 158.723 113.472 159.131C112.789 159.554 111.953 160.083 111.589 160.34C110.495 161.095 109.325 161.805 108.065 162.455C107.396 162.787 106.652 163.18 106.394 163.316C105.163 163.996 103.705 164.63 102.672 164.932C102.049 165.129 101.214 165.446 100.819 165.643C100.424 165.839 99.6948 166.111 99.2239 166.232C98.7378 166.353 97.7656 166.655 97.0517 166.897C95.6542 167.365 93.7098 167.818 93.1022 167.818C92.8896 167.818 92.0997 167.984 91.3553 168.196C88.9856 168.861 87.0261 169.027 81.2538 168.997C78.3676 168.982 75.5726 168.951 75.0257 168.921Z" fill="black"/>
<path d="M51.0527 153.917C49.276 153.782 45.6031 153.241 44.7073 152.97C44.1698 152.805 43.0649 152.55 42.2438 152.4C41.4226 152.234 40.3775 151.934 39.9296 151.739C39.4816 151.528 38.6008 151.243 37.9886 151.108C37.3765 150.973 36.5404 150.702 36.1223 150.507C34.1366 149.576 32.0314 148.569 31.4939 148.284C31.1654 148.119 30.4936 147.773 30.0009 147.518C29.5082 147.263 28.8363 146.887 28.5078 146.662C28.1794 146.436 27.5821 146.106 27.194 145.911C26.7908 145.73 26.4325 145.475 26.3877 145.355C26.3429 145.25 26.0294 145.009 25.686 144.829C24.7006 144.333 22.6402 142.771 20.55 140.954C19.8333 140.338 18.8927 139.527 18.4597 139.166C17.6535 138.49 15.7872 136.477 14.1747 134.495C13.682 133.894 13.0997 133.233 12.8907 133.008C12.6667 132.797 12.4129 132.467 12.3233 132.287C12.2337 132.106 11.9053 131.656 11.5917 131.28C11.2931 130.92 10.7407 130.094 10.3674 129.463C9.99419 128.832 9.53135 128.111 9.32232 127.855C8.93413 127.36 8.21748 126.023 6.66472 122.838C5.00745 119.444 4.85815 119.113 4.46996 117.972C3.70851 115.764 2.58873 112.174 2.37971 111.272C1.97659 109.62 1.27486 104.558 1.0957 102.125C0.901602 99.4509 1.02105 93.1721 1.28979 92.4211C1.42416 92.0005 1.49882 91.9705 2.06617 92.0155L2.67831 92.0606L3.08143 93.2623C3.29046 93.9232 3.82795 95.1399 4.246 95.966C4.67898 96.7922 5.30606 98.0089 5.64946 98.6698C5.99285 99.3307 6.4109 100.082 6.57514 100.322C6.7543 100.577 7.06784 101.148 7.29179 101.599C7.50082 102.05 7.99352 102.906 8.35185 103.477C8.72511 104.062 9.23274 104.919 9.48656 105.399C9.72544 105.88 10.1584 106.571 10.4421 106.946C10.7258 107.322 10.9647 107.727 10.9647 107.833C10.9647 107.953 11.2633 108.463 11.6216 108.989C11.9799 109.515 12.6219 110.626 13.0549 111.453C13.4879 112.264 14.0254 113.24 14.2493 113.616C14.4733 113.991 15.0406 114.998 15.5184 115.869C15.9962 116.74 16.5486 117.671 16.7576 117.957C16.9667 118.227 17.2503 118.783 17.3996 119.173C17.6684 119.879 18.6538 121.517 19.3555 122.388C19.5496 122.628 19.8034 123.004 19.9229 123.229C20.759 124.716 23.4912 128.111 25.477 130.139C27.6867 132.392 30.6429 134.84 32.0015 135.531C32.33 135.711 32.8227 136.042 33.0915 136.282C33.3602 136.508 33.9276 136.883 34.3307 137.108C34.7487 137.334 35.6445 137.844 36.3463 138.265C37.7049 139.091 39.6459 139.917 42.1691 140.773C43.0351 141.059 44.0503 141.419 44.4385 141.57C44.8267 141.735 45.9614 141.99 46.9767 142.17C47.9919 142.336 49.1864 142.561 49.6343 142.681C51.7245 143.192 52.8145 143.207 80.1669 143.252C103.951 143.282 107.385 143.312 107.684 143.507C108.131 143.808 108.102 144.138 107.609 144.439C107.37 144.574 106.877 144.979 106.489 145.34C105.563 146.211 104.683 146.872 103.608 147.518C103.115 147.818 102.338 148.284 101.891 148.554C101.443 148.84 100.562 149.305 99.9496 149.606C99.3374 149.891 98.4566 150.327 98.0086 150.567C97.5607 150.807 96.5007 151.228 95.6646 151.513C94.8434 151.814 93.9924 152.129 93.7983 152.234C93.6191 152.34 92.9473 152.535 92.3351 152.67C91.723 152.82 90.6778 153.076 90.0209 153.241C87.1692 154.007 86.4973 154.022 68.5212 153.992C59.3241 153.977 51.4707 153.947 51.0527 153.917Z" fill="black"/>
<path d="M127.052 150.847C126.764 150.556 126.84 150.236 127.31 149.747C128.934 148.036 130.376 145.913 132.045 142.751C132.258 142.339 132.577 141.85 132.744 141.667C132.926 141.484 133.214 141.025 133.396 140.643C133.593 140.277 133.927 139.727 134.155 139.422C134.383 139.131 134.656 138.643 134.762 138.352C135.035 137.634 136.097 135.634 136.522 135.038C136.72 134.778 137.114 134.121 137.387 133.587C138.45 131.586 139.042 130.547 139.558 129.784C139.846 129.356 140.074 128.943 140.074 128.867C140.074 128.791 140.301 128.363 140.574 127.92C141.5 126.484 142.608 124.56 143.428 123.002C143.868 122.162 144.46 121.138 144.733 120.726C145.006 120.329 145.234 119.916 145.234 119.84C145.234 119.764 145.507 119.229 145.825 118.679C146.159 118.114 146.508 117.35 146.599 116.969C146.706 116.602 146.948 115.945 147.161 115.517C147.373 115.105 147.738 114.204 147.965 113.532C148.193 112.86 148.557 111.852 148.77 111.302C148.982 110.752 149.225 109.774 149.316 109.118C149.407 108.476 149.589 107.743 149.711 107.483C150.211 106.521 150.591 102.657 150.591 98.4104C150.591 94.21 150.424 92.0411 149.923 90.1165C149.756 89.475 149.528 88.36 149.407 87.6421C149.286 86.9242 149.012 85.8245 148.785 85.1983C148.572 84.572 148.163 83.3959 147.889 82.6017C147.616 81.8074 147.252 80.9062 147.085 80.616C146.918 80.3258 146.66 79.7759 146.508 79.3941C146.357 79.0122 146.053 78.4318 145.841 78.0958C145.613 77.7598 145.34 77.2099 145.234 76.8739C145.127 76.5378 144.824 75.9269 144.551 75.4992C143.367 73.651 142.805 72.7193 142.654 72.2916C142.563 72.0472 142.244 71.4515 141.956 70.9933C140.969 69.4506 140.392 68.4731 140.028 67.7552C139.831 67.3581 139.482 66.8082 139.269 66.5027C139.042 66.2125 138.86 65.907 138.86 65.8459C138.86 65.7695 138.617 65.296 138.313 64.792C137.995 64.3032 137.585 63.5548 137.387 63.1577C137.19 62.7453 136.796 62.0732 136.507 61.6455C136.219 61.2178 135.976 60.7902 135.976 60.6832C135.976 60.5763 135.733 60.1181 135.43 59.6752C135.126 59.2169 134.716 58.5143 134.504 58.0866C134.292 57.6742 133.988 57.1396 133.836 56.9105C133.669 56.6814 133.442 56.2232 133.32 55.8719C133.199 55.5206 132.926 55.0165 132.713 54.7722C132.501 54.5125 132.182 54.0237 132 53.6724C131.833 53.3364 131.56 52.9087 131.393 52.7254C131.241 52.5421 130.892 51.9923 130.619 51.4729C129.42 49.1971 129.086 48.6014 128.646 47.9141C128.373 47.5169 127.857 46.631 127.477 45.9437C127.098 45.2564 126.536 44.3094 126.218 43.8359C125.914 43.3624 125.58 42.7208 125.489 42.4306C125.398 42.1404 125.155 41.6975 124.973 41.4378C124.791 41.1934 124.442 40.5977 124.214 40.1395C123.987 39.6813 123.714 39.1925 123.592 39.0703C123.395 38.8412 122.833 37.8637 121.377 35.1754C120.967 34.427 120.299 33.312 119.889 32.701C119.404 31.9831 119.115 31.3721 119.055 30.9139C118.948 30.2877 118.979 30.2113 119.313 30.0586C119.601 29.9211 119.95 29.9975 121.407 30.5932C122.363 30.975 123.258 31.4027 123.395 31.5249C123.532 31.6471 124.017 31.8915 124.457 32.0595C124.913 32.2428 125.489 32.5483 125.762 32.7468C126.036 32.9454 126.552 33.2509 126.916 33.4036C127.644 33.7244 130.998 36.0613 131.878 36.8556C132.167 37.1305 132.577 37.4665 132.789 37.604C133.942 38.383 138.025 42.7667 139.239 44.5385C139.664 45.1494 140.21 45.959 140.483 46.3255C140.757 46.6921 141.151 47.3489 141.364 47.7919C141.591 48.2195 141.971 48.8458 142.213 49.1971C142.456 49.5331 142.654 49.8997 142.654 50.0066C142.654 50.1135 142.972 50.6634 143.352 51.2438C143.731 51.809 144.293 52.7254 144.596 53.2753C144.885 53.8252 145.355 54.5736 145.628 54.9554C145.901 55.3373 146.266 56.0246 146.448 56.4829C146.63 56.9411 146.964 57.6284 147.206 58.0103C147.449 58.3921 147.783 59.0031 147.965 59.3849C148.269 60.057 149.012 61.3095 149.62 62.2107C149.786 62.4703 150.166 63.1424 150.469 63.7381C150.758 64.3185 151.137 64.9295 151.289 65.1128C151.441 65.2808 151.744 65.7695 151.941 66.1819C152.488 67.297 153.55 69.191 154.506 70.7642C155.644 72.6276 156.54 74.3078 156.768 75.041C156.874 75.377 157.253 76.3087 157.602 77.103C157.951 77.8972 158.331 78.9053 158.437 79.3177C158.543 79.7454 158.801 80.4022 158.998 80.8146C159.196 81.2117 159.499 82.1282 159.666 82.8766C159.833 83.6098 160.137 84.7553 160.349 85.4427C160.865 87.1686 161.411 90.6511 161.76 94.6071C162.034 97.4787 162.049 98.334 161.927 100.259C161.639 104.551 161.457 106.506 161.229 107.88C161.108 108.644 160.926 109.667 160.85 110.172C160.759 110.676 160.501 111.745 160.258 112.539C160.015 113.333 159.636 114.677 159.423 115.517C159.196 116.358 158.892 117.289 158.74 117.579C158.589 117.885 158.346 118.526 158.209 119.031C158.057 119.535 157.784 120.222 157.602 120.558C157.405 120.894 157.177 121.429 157.071 121.765C156.965 122.085 156.434 123.2 155.872 124.239C155.326 125.278 154.628 126.606 154.339 127.187C154.051 127.767 153.702 128.363 153.58 128.5C153.459 128.653 153.186 129.066 152.973 129.417C152.108 130.899 151.653 131.571 151.046 132.273C150.682 132.686 150.393 133.083 150.393 133.159C150.393 133.235 150.135 133.602 149.832 133.984C149.513 134.35 148.921 135.084 148.496 135.618C148.087 136.138 146.994 137.36 146.083 138.337C144.535 139.971 143.807 140.643 141.379 142.599C140.893 142.996 140.271 143.5 140.013 143.744C138.647 144.951 135.703 146.967 133.776 147.99C132.941 148.433 132.061 148.953 131.803 149.136C131.56 149.319 130.938 149.609 130.452 149.793C129.951 149.976 129.374 150.251 129.162 150.404C128.358 150.969 127.371 151.167 127.052 150.847Z" fill="black"/>
<path d="M41.4566 138.705C41.2146 138.537 40.4584 138.201 39.7929 137.957C38.5526 137.499 35.9964 136.263 35.3309 135.805C35.1192 135.652 34.1663 135.011 33.2134 134.37C32.2605 133.744 31.2774 133.057 31.0202 132.874C30.7782 132.675 30.0522 132.141 29.4321 131.668C28.0254 130.614 25.318 127.775 23.8055 125.791C22.3686 123.867 20.8107 121.638 20.8107 121.486C20.8107 121.409 20.5989 121.043 20.3418 120.692C20.0696 120.326 19.6914 119.639 19.4797 119.181C19.2679 118.708 18.9352 118.112 18.7537 117.853C18.557 117.608 18.2697 117.089 18.1033 116.708C17.9369 116.326 17.6646 115.853 17.5134 115.639C17.347 115.441 17.0596 114.968 16.8781 114.586C16.6815 114.204 16.3034 113.594 16.0311 113.227C15.7437 112.861 15.5169 112.464 15.5169 112.372C15.5169 112.266 15.2749 111.808 14.9724 111.365C14.6698 110.907 14.2917 110.266 14.1253 109.93C13.7472 109.167 12.7943 107.564 12.5523 107.259C12.4464 107.136 12.0229 106.343 11.5994 105.503C11.1759 104.664 10.5558 103.534 10.223 102.984C9.89027 102.435 9.43651 101.656 9.20963 101.259C8.98276 100.847 8.63487 100.298 8.45337 100.038C7.83324 99.1375 5.2922 94.1152 4.98969 93.1382C4.85357 92.7261 4.55106 92.0391 4.32418 91.6117C4.08218 91.1995 3.80992 90.5431 3.71917 90.1615C3.6133 89.7799 3.31079 88.8945 3.03854 88.177C2.76628 87.4596 2.43353 86.3605 2.28227 85.7346C2.14615 85.1087 1.87389 84.147 1.67727 83.5975C1.34451 82.6357 1.25376 82.1473 0.784876 78.7126C0.648749 77.8272 0.452121 76.4228 0.331119 75.5832C-0.0470123 72.9881 -0.092388 70.3472 0.149616 67.0346C0.42187 63.5847 1.08738 59.0509 1.64701 56.8833C2.40328 53.9829 2.84191 52.5479 3.09904 52.0136C3.25029 51.7083 3.56792 50.8535 3.77967 50.1207C4.18805 48.7927 6.01821 44.6405 6.66859 43.5872C6.86522 43.2972 7.25848 42.5797 7.56098 41.9844C7.87861 41.4043 8.33237 40.6105 8.60462 40.2136C8.87688 39.8167 9.36089 39.0534 9.67852 38.5344C10.0113 38.0001 10.5255 37.2674 10.828 36.8858C11.1305 36.5041 11.6902 35.7103 12.0683 35.1303C12.9002 33.8175 19.0108 27.5282 20.5838 26.368C21.1737 25.9406 21.8997 25.3605 22.2173 25.0857C22.535 24.8262 22.9131 24.5362 23.0492 24.4599C23.1854 24.3835 23.5635 24.0935 23.866 23.8187C24.1836 23.5439 24.7584 23.147 25.1668 22.9333C25.56 22.7349 25.9987 22.4448 26.1045 22.3074C26.2255 22.1548 26.6944 21.88 27.1482 21.6816C27.6019 21.4679 28.2069 21.132 28.4792 20.9183C28.7514 20.7199 29.6287 20.2314 30.4455 19.8497C31.2622 19.4681 32.4874 18.8728 33.1831 18.5217C34.1512 18.0179 34.4839 17.9263 34.6805 18.0484C34.8167 18.14 34.9528 18.2774 34.983 18.3537C35.0435 18.5217 32.6235 21.9869 31.8672 22.8417C31.595 23.1318 31.1564 23.8187 30.8841 24.3683C30.2035 25.7574 29.5833 26.8412 29.2657 27.1923C29.1144 27.3602 28.7968 27.9556 28.5548 28.5051C28.2977 29.07 28.0254 29.5737 27.9347 29.6348C27.8439 29.6806 27.5868 30.0927 27.375 30.5202C27.1633 30.9628 26.7549 31.6651 26.4827 32.0772C26.2104 32.5046 25.7264 33.329 25.3936 33.909C25.0609 34.5044 24.6071 35.2829 24.3954 35.6645C24.1685 36.0462 23.7752 36.7942 23.5181 37.3437C23.2459 37.8933 22.898 38.5344 22.7316 38.7634C22.4291 39.2061 21.5972 40.6868 20.6897 42.3813C20.3872 42.9308 20.0242 43.5414 19.8729 43.7399C19.7217 43.9536 19.4494 44.4268 19.283 44.8084C19.1167 45.1901 18.8595 45.648 18.7083 45.8159C17.6949 46.9456 14.6245 53.2959 14.0195 55.4941C13.8531 56.0742 13.5808 56.868 13.4145 57.2802C13.2329 57.677 12.9607 58.7303 12.7943 59.6157C12.6279 60.5011 12.3406 61.7529 12.1288 62.3787C11.7355 63.6305 11.5087 65.9356 11.3574 70.3167C11.2364 73.5987 11.5692 77.5524 12.0834 79.1095C12.2952 79.6895 12.5372 80.7428 12.6279 81.4451C12.7187 82.132 12.9607 83.1242 13.1876 83.6432C13.3993 84.1623 13.7623 85.1698 13.9892 85.8872C14.2161 86.6047 14.6093 87.5664 14.8665 88.0244C15.1236 88.4823 15.4564 89.2456 15.6076 89.7036C15.7437 90.1615 16.0614 90.8637 16.3034 91.2453C16.5303 91.627 16.7269 92.0239 16.7269 92.1002C16.7269 92.1918 16.9386 92.5582 17.2109 92.9245C17.4831 93.2909 18.1638 94.5121 18.7234 95.6265C19.2982 96.7408 19.9788 97.9926 20.2511 98.4048C20.5082 98.8169 21.0073 99.6412 21.3401 100.252C21.6728 100.847 22.1568 101.672 22.414 102.068C22.6711 102.465 23.0946 103.229 23.3517 103.763C23.624 104.297 23.987 104.954 24.1836 105.228C24.3651 105.488 24.7281 106.068 24.9701 106.495C25.2273 106.938 25.7415 107.854 26.1499 108.541C26.5432 109.213 27.012 110.083 27.1935 110.464C27.3599 110.846 27.6624 111.365 27.8439 111.609C28.0406 111.869 28.3431 112.372 28.5246 112.754C28.7061 113.136 29.0842 113.792 29.3413 114.204C30.1732 115.487 30.8992 116.769 31.1412 117.364C31.2774 117.685 31.5799 118.204 31.8219 118.509C32.0639 118.83 32.3513 119.333 32.4571 119.623C32.563 119.913 32.8201 120.387 33.0319 120.677C33.4403 121.226 34.3932 122.921 34.9982 124.127C35.1948 124.554 35.5124 125.088 35.6939 125.333C35.8603 125.592 36.2233 126.157 36.4653 126.6C36.7224 127.042 37.3577 128.172 37.8871 129.118C38.4165 130.065 39.082 131.164 39.3694 131.561C39.6416 131.943 40.0197 132.599 40.1861 133.011C40.3676 133.408 40.7458 134.125 41.0331 134.583C42.7423 137.316 43.2263 138.384 42.9087 138.766C42.6364 139.102 42.0012 139.071 41.4566 138.705Z" fill="black"/>
<path d="M14.6616 77.6552C14.4792 77.399 14.3576 76.5401 14.2057 74.5963C13.8257 69.8648 13.9777 65.1032 14.616 62.7224C14.7832 62.0594 15.0871 60.8238 15.2847 59.98C15.4823 59.1362 15.8014 58.0512 15.999 57.5691C16.2118 57.0869 16.4853 56.2581 16.6221 55.7458C16.8957 54.691 18.917 50.502 19.7073 49.3568C19.9809 48.9801 20.376 48.2417 20.5736 47.7294C20.7863 47.202 21.1359 46.5692 21.3335 46.313C21.531 46.0418 21.8198 45.5596 21.9566 45.2431C22.0934 44.9116 22.3365 44.5048 22.4885 44.339C22.8989 43.9171 23.9475 42.2445 24.3426 41.4007C24.5098 41.024 24.8746 40.4213 25.1481 40.0446C25.4065 39.6678 25.7409 39.0802 25.8776 38.7487C26.0144 38.4021 26.4248 37.6487 26.8047 37.061C27.4582 36.0514 29.0388 33.2487 29.6771 31.983C29.8291 31.6515 30.1178 31.1844 30.3154 30.9282C30.4978 30.6871 30.8473 30.0994 31.0753 29.6474C31.3033 29.1953 31.6072 28.683 31.7592 28.5173C31.896 28.3515 32.3823 27.5981 32.8383 26.8447C34.4492 24.1324 35.1635 23.0474 35.7866 22.3392C36.6985 21.3297 37.7168 20.094 38.5831 18.979C39.0238 18.3913 39.7381 17.653 40.1484 17.3365C40.5588 17.0201 41.0147 16.6283 41.1515 16.4626C41.805 15.679 44.5406 13.0722 45.3461 12.4695C45.8324 12.0927 46.5163 11.5503 46.8811 11.264C47.2306 10.9777 47.8234 10.5407 48.1881 10.3147C49.2216 9.66674 50.331 8.91332 50.8325 8.50648C51.0909 8.29552 52.2611 7.64758 53.4466 7.05991C54.632 6.45718 55.6503 5.91472 55.6959 5.85444C55.7414 5.7791 56.2734 5.53801 56.8813 5.31198C57.474 5.08596 58.2491 4.73939 58.5834 4.55856C58.9178 4.37774 59.4649 4.13665 59.7993 4.03117C60.1336 3.92569 60.9847 3.59419 61.699 3.27775C62.4133 2.96132 63.2948 2.65995 63.6747 2.61475C64.0547 2.55447 64.9818 2.31338 65.7264 2.07228C66.4863 1.83119 67.7326 1.52982 68.5229 1.39421C69.3131 1.25859 70.7873 0.957226 71.7904 0.716132C75.9242 -0.263311 86.7907 -0.233174 90.3014 0.776406C91.0005 0.972295 91.9732 1.18325 92.4747 1.24353C94.6936 1.48462 97.4292 2.2079 99.7697 3.15721C100.195 3.32296 101.35 3.75994 102.353 4.10651C103.356 4.45309 104.39 4.84486 104.633 4.96541C104.891 5.10103 105.803 5.55308 106.67 5.99006C107.536 6.42704 108.584 6.99964 108.995 7.27087C109.405 7.55717 109.876 7.8284 110.059 7.88867C110.408 7.99415 111.974 8.98866 113.098 9.81742C113.478 10.1037 114.056 10.4503 114.344 10.5708C115.044 10.8571 115.18 11.1886 114.77 11.5955C114.466 11.8969 114.405 11.9119 111.974 11.7311C108.782 11.5201 78.2191 11.5051 75.4379 11.716C73.3862 11.8818 71.5016 12.1982 70.453 12.5599C70.1034 12.6804 69.2372 12.9064 68.5077 13.0722C67.7934 13.2229 66.8511 13.5242 66.4256 13.7352C66 13.9462 65.0881 14.2626 64.4042 14.4133C62.8085 14.79 60.2248 16.0256 56.9877 17.9694C55.9846 18.5721 54.0089 19.8982 53.6441 20.2297C53.4314 20.4105 52.9602 20.742 52.5803 20.9529C52.2003 21.179 51.4405 21.7817 50.8781 22.294C49.1608 23.9063 45.9236 27.4022 44.9662 28.6679C43.3552 30.8378 43.2032 31.0638 42.7929 31.8775C42.5649 32.2994 42.3217 32.6611 42.2457 32.6611C42.1697 32.6611 41.8962 33.0528 41.6682 33.52C41.0755 34.7104 39.9965 36.5939 39.7533 36.8802C39.6317 37.0007 39.3277 37.5432 39.0542 38.0857C38.7806 38.6281 38.4463 39.2007 38.2791 39.3665C38.1271 39.5322 37.8384 40.0596 37.6256 40.5418C37.4128 41.0089 37.0025 41.7473 36.7137 42.1541C36.425 42.576 36.1362 43.0582 36.0754 43.2541C36.0146 43.4349 35.7411 43.9171 35.4675 44.3089C35.1787 44.7157 34.9508 45.1377 34.9508 45.2281C34.9508 45.3336 34.7684 45.65 34.5556 45.9363C34.3428 46.2226 33.9325 46.9007 33.6437 47.4582C33.3702 48.0007 33.0662 48.4979 32.975 48.5582C32.8839 48.6185 32.6103 49.0705 32.3367 49.5828C32.0784 50.0952 31.7136 50.728 31.5312 50.9691C31.3337 51.2253 31.1361 51.5568 31.0905 51.7376C31.0449 51.9034 30.7258 52.4157 30.3914 52.8527C30.057 53.3047 29.7835 53.7417 29.7835 53.8321C29.7835 53.9376 29.5099 54.4198 29.1756 54.902C28.8412 55.3992 28.5677 55.8663 28.5677 55.9567C28.5677 56.0321 28.3397 56.4389 28.0813 56.8608C27.3974 57.8855 26.5463 59.3773 25.9992 60.5074C25.7409 61.0197 25.3761 61.6677 25.1633 61.9389C24.9658 62.2101 24.5858 62.7978 24.3426 63.2498C24.0995 63.7019 23.5524 64.6964 23.1268 65.4347C22.7013 66.1882 22.139 67.1827 21.8806 67.6649C21.6222 68.1621 21.2119 68.8251 20.9535 69.1566C20.7104 69.5032 20.5128 69.8498 20.5128 69.9553C20.5128 70.0457 20.3 70.4073 20.0265 70.7689C19.5553 71.4169 18.9626 72.4566 18.0659 74.2497C17.7924 74.7922 17.4276 75.3799 17.2604 75.5607C17.0781 75.7415 16.7741 76.3442 16.5613 76.9168L16.1814 77.9415L15.5431 77.9867C15.0112 78.0319 14.8744 77.9716 14.6616 77.6552Z" fill="black"/>
<path d="M160.394 77.8392C160.228 77.7161 159.957 77.0542 159.746 76.2538C159.535 75.4842 159.204 74.6222 159.023 74.3298C158.827 74.0373 158.405 73.2677 158.074 72.6366C156.959 70.4971 156.492 69.6351 156.221 69.2503C156.071 69.0348 155.784 68.4807 155.574 68.0189C155.378 67.5571 154.836 66.5874 154.384 65.864C153.917 65.1405 153.299 64.0784 152.983 63.4781C152.2 61.9389 151.507 60.7075 151.296 60.4458C151.19 60.3227 150.829 59.6762 150.498 59.0143C149.534 57.1057 148.916 56.0128 148.524 55.5357C148.329 55.3048 148.073 54.843 147.952 54.5198C147.817 54.1811 147.545 53.6886 147.335 53.3961C147.124 53.1037 146.777 52.5188 146.566 52.0878C145.843 50.6563 144.91 49.0093 144.623 48.7014C144.458 48.5321 144.202 48.0704 144.036 47.6855C143.87 47.3007 143.524 46.7158 143.268 46.3926C143.027 46.0693 142.816 45.7615 142.816 45.6845C142.816 45.6076 142.605 45.2997 142.334 45.0073C142.078 44.6994 141.656 44.1145 141.4 43.6989C140.255 41.8826 138.915 40.3126 136.429 37.8652C135.948 37.388 135.089 36.5414 134.532 35.9873C133.538 34.9868 133.146 34.679 129.998 32.5548C129.139 31.9699 128.16 31.308 127.814 31.0618C127.467 30.8309 126.835 30.4768 126.383 30.3075C125.931 30.1228 125.238 29.7842 124.817 29.5379C124.41 29.307 123.657 28.9992 123.16 28.8453C122.663 28.7067 121.985 28.4297 121.653 28.2296C121.322 28.0295 120.509 27.7062 119.846 27.5215C119.183 27.3368 118.325 27.0289 117.933 26.8288C117.406 26.5518 116.683 26.3979 115.222 26.2132C114.122 26.09 112.511 25.7976 111.637 25.5821L110.056 25.1819L82.4163 25.1665C67.2186 25.1511 54.6567 25.0895 54.506 25.0125C54.1747 24.8586 53.9186 24.3968 54.024 24.1198C54.0692 24.012 54.8525 23.3963 55.7713 22.7653C56.6901 22.1342 57.895 21.303 58.4222 20.9182C59.8079 19.9484 61.3895 18.9941 62.5342 18.4554C63.0764 18.1937 63.7241 17.8859 63.9651 17.7473C64.2212 17.6088 64.9592 17.301 65.622 17.0547C66.2847 16.8238 67.1432 16.4852 67.5349 16.3005C68.1825 16.008 69.5984 15.6078 72.7765 14.7766C73.4694 14.5919 75.2919 14.3764 77.4458 14.2225C80.5486 13.9916 82.7778 13.9608 95.5205 14.0378C110.176 14.1147 114.695 14.284 115.508 14.7304C115.704 14.8382 116.984 15.1614 118.37 15.4539C119.771 15.7463 121.443 16.1773 122.12 16.439C122.783 16.6853 123.762 16.9777 124.304 17.0701C124.832 17.1624 125.615 17.4087 126.021 17.6088C126.443 17.8089 127.754 18.44 128.959 19.0095C130.164 19.5636 131.308 20.1485 131.519 20.3025C131.73 20.441 132.197 20.6719 132.574 20.8258C132.95 20.9643 133.628 21.3184 134.08 21.5954C134.532 21.8879 135.164 22.2265 135.466 22.3497C135.767 22.4728 136.098 22.7345 136.189 22.9192C136.279 23.1039 136.61 23.3502 136.911 23.4887C137.213 23.6118 137.65 23.8889 137.86 24.1044C138.086 24.3199 138.568 24.7047 138.945 24.9664C140.466 26.0592 140.933 26.4286 142.033 27.3984C144.97 29.9689 148.555 33.7092 149.94 35.6487C150.633 36.6338 151.401 37.7421 151.672 38.2192C151.808 38.4655 152.139 38.9581 152.411 39.3275C152.667 39.6815 152.998 40.1894 153.118 40.4357C153.239 40.682 153.525 41.0976 153.721 41.3439C154.128 41.8364 156.854 47.3007 157.758 49.4095C158.059 50.1175 158.42 51.118 158.556 51.626C158.691 52.1339 158.932 52.7804 159.083 53.0883C159.625 54.2119 160.755 58.9374 161.252 62.2929C162.005 67.2647 162.156 70.6818 161.855 75.6381L161.719 77.947L161.192 77.9932C160.906 78.0239 160.544 77.947 160.394 77.8392Z" fill="black"/>
</svg>
